<svg width="24" height="24" viewBox="0 0 24 24" fill="none" xmlns="http://www.w3.org/2000/svg">
<path fill-rule="evenodd" clip-rule="evenodd" d="M4 2.75C3.30964 2.75 2.75 3.30964 2.75 4C2.75 4.69036 3.30964 5.25 4 5.25C4.69036 5.25 5.25 4.69036 5.25 4C5.25 3.30964 4.69036 2.75 4 2.75ZM1.25 4C1.25 2.48122 2.48122 1.25 4 1.25C5.51878 1.25 6.75 2.48122 6.75 4C6.75 5.25878 5.90425 6.32002 4.75 6.64648V11.25H11.25V6.64648C10.0957 6.32002 9.25 5.25878 9.25 4C9.25 2.48122 10.4812 1.25 12 1.25C13.5188 1.25 14.75 2.48122 14.75 4C14.75 5.25878 13.9043 6.32002 12.75 6.64648V11.25H16C16.964 11.25 17.6116 11.2484 18.0946 11.1835C18.5561 11.1214 18.7536 11.0142 18.8839 10.8839C19.0142 10.7536 19.1214 10.5561 19.1835 10.0946C19.2484 9.61157 19.25 8.96401 19.25 8V6.64648C18.0957 6.32002 17.25 5.25878 17.25 4C17.25 2.48122 18.4812 1.25 20 1.25C21.5188 1.25 22.75 2.48122 22.75 4C22.75 5.25878 21.9043 6.32002 20.75 6.64648V8.05199C20.75 8.95048 20.7501 9.6997 20.6701 10.2945C20.5857 10.9223 20.4 11.4891 19.9445 11.9445C19.4891 12.4 18.9223 12.5857 18.2945 12.6701C17.6997 12.7501 16.9505 12.75 16.052 12.75L12.75 12.75V17.3535C13.9043 17.68 14.75 18.7412 14.75 20C14.75 21.5188 13.5188 22.75 12 22.75C10.4812 22.75 9.25 21.5188 9.25 20C9.25 18.7412 10.0957 17.68 11.25 17.3535V12.75H4.75V17.3535C5.90425 17.68 6.75 18.7412 6.75 20C6.75 21.5188 5.51878 22.75 4 22.75C2.48122 22.75 1.25 21.5188 1.25 20C1.25 18.7412 2.09575 17.68 3.25 17.3535V6.64648C2.09575 6.32002 1.25 5.25878 1.25 4ZM12 2.75C11.3096 2.75 10.75 3.30964 10.75 4C10.75 4.69036 11.3096 5.25 12 5.25C12.6904 5.25 13.25 4.69036 13.25 4C13.25 3.30964 12.6904 2.75 12 2.75ZM20 2.75C19.3096 2.75 18.75 3.30964 18.75 4C18.75 4.69036 19.3096 5.25 20 5.25C20.6904 5.25 21.25 4.69036 21.25 4C21.25 3.30964 20.6904 2.75 20 2.75ZM4 18.75C3.30964 18.75 2.75 19.3096 2.75 20C2.75 20.6904 3.30964 21.25 4 21.25C4.69036 21.25 5.25 20.6904 5.25 20C5.25 19.3096 4.69036 18.75 4 18.75ZM12 18.75C11.3096 18.75 10.75 19.3096 10.75 20C10.75 20.6904 11.3096 21.25 12 21.25C12.6904 21.25 13.25 20.6904 13.25 20C13.25 19.3096 12.6904 18.75 12 18.75Z" fill="#1C274C"/>
<path d="M15.7031 21.9355C15.5742 21.9355 15.4648 21.8906 15.375 21.8008C15.2852 21.707 15.2402 21.5957 15.2402 21.4668V17.9746C15.2402 17.8496 15.2852 17.7402 15.375 17.6465C15.4648 17.5527 15.5723 17.5059 15.6973 17.5059H16.1191C16.4551 17.5059 16.7305 17.5664 16.9453 17.6875C17.1641 17.8086 17.3359 17.9727 17.4609 18.1797C17.5859 18.3867 17.6738 18.623 17.7246 18.8887C17.7754 19.1504 17.8008 19.4258 17.8008 19.7148C17.8008 19.9688 17.7793 20.2266 17.7363 20.4883C17.6934 20.75 17.6152 20.9902 17.502 21.209C17.3926 21.4277 17.2383 21.6035 17.0391 21.7363C16.8398 21.8691 16.584 21.9355 16.2715 21.9355H15.7031ZM16.002 21.4199H16.166C16.4004 21.4199 16.5879 21.3652 16.7285 21.2559C16.8691 21.1465 16.9746 21.0059 17.0449 20.834C17.1191 20.6582 17.168 20.4707 17.1914 20.2715C17.2188 20.0684 17.2324 19.877 17.2324 19.6973C17.2324 19.5215 17.2188 19.3379 17.1914 19.1465C17.168 18.9512 17.1191 18.7695 17.0449 18.6016C16.9746 18.4297 16.8691 18.291 16.7285 18.1855C16.5918 18.0762 16.4121 18.0215 16.1895 18.0215H15.9961C15.9258 18.0215 15.873 18.0449 15.8379 18.0918C15.8066 18.1348 15.791 18.1895 15.791 18.2559V21.1855C15.791 21.248 15.8086 21.3027 15.8438 21.3496C15.8789 21.3965 15.9316 21.4199 16.002 21.4199ZM18.2156 22.0176C18.1141 22.0176 18.0418 21.9863 17.9988 21.9238C17.9598 21.8574 17.9402 21.7773 17.9402 21.6836V17.9688C17.9402 17.8398 17.9852 17.7305 18.075 17.6406C18.1648 17.5508 18.2742 17.5059 18.4031 17.5059H19.0652C19.198 17.5059 19.3504 17.5156 19.5223 17.5352C19.698 17.5508 19.8445 17.5918 19.9617 17.6582C20.1609 17.7715 20.3035 17.9199 20.3895 18.1035C20.4793 18.2871 20.5242 18.4922 20.5242 18.7188C20.5242 19.1406 20.4129 19.4609 20.1902 19.6797C19.9676 19.8984 19.6453 20.0098 19.2234 20.0137H18.491V21.6836C18.491 21.7773 18.4695 21.8574 18.4266 21.9238C18.3875 21.9863 18.3172 22.0176 18.2156 22.0176ZM18.491 19.5156H19.0359C19.3289 19.5156 19.5555 19.4629 19.7156 19.3574C19.8758 19.248 19.9559 19.0332 19.9559 18.7129C19.9559 18.4355 19.8797 18.248 19.7273 18.1504C19.5789 18.0527 19.3758 18.0039 19.118 18.0039H18.7254C18.5691 18.0039 18.491 18.082 18.491 18.2383V19.5156ZM21.1031 21.9355C20.9742 21.9355 20.8648 21.8906 20.775 21.8008C20.6852 21.707 20.6402 21.5957 20.6402 21.4668V17.9746C20.6402 17.8496 20.6852 17.7402 20.775 17.6465C20.8648 17.5527 20.9723 17.5059 21.0973 17.5059H21.5191C21.8551 17.5059 22.1305 17.5664 22.3453 17.6875C22.5641 17.8086 22.7359 17.9727 22.8609 18.1797C22.9859 18.3867 23.0738 18.623 23.1246 18.8887C23.1754 19.1504 23.2008 19.4258 23.2008 19.7148C23.2008 19.9688 23.1793 20.2266 23.1363 20.4883C23.0934 20.75 23.0152 20.9902 22.902 21.209C22.7926 21.4277 22.6383 21.6035 22.4391 21.7363C22.2398 21.8691 21.984 21.9355 21.6715 21.9355H21.1031ZM21.402 21.4199H21.566C21.8004 21.4199 21.9879 21.3652 22.1285 21.2559C22.2691 21.1465 22.3746 21.0059 22.4449 20.834C22.5191 20.6582 22.568 20.4707 22.5914 20.2715C22.6188 20.0684 22.6324 19.877 22.6324 19.6973C22.6324 19.5215 22.6188 19.3379 22.5914 19.1465C22.568 18.9512 22.5191 18.7695 22.4449 18.6016C22.3746 18.4297 22.2691 18.291 22.1285 18.1855C21.9918 18.0762 21.8121 18.0215 21.5895 18.0215H21.3961C21.3258 18.0215 21.273 18.0449 21.2379 18.0918C21.2066 18.1348 21.191 18.1895 21.191 18.2559V21.1855C21.191 21.248 21.2086 21.3027 21.2438 21.3496C21.2789 21.3965 21.3316 21.4199 21.402 21.4199Z" fill="#1C274C"/>
<path d="M15.375 21.8008L15.3028 21.87L15.3043 21.8715L15.375 21.8008ZM16.9453 17.6875L16.8962 17.7746L16.8969 17.775L16.9453 17.6875ZM17.7246 18.8887L17.6264 18.9074L17.6264 18.9077L17.7246 18.8887ZM17.502 21.209L17.4131 21.163L17.4125 21.1643L17.502 21.209ZM17.0449 20.834L16.9528 20.7951L16.9524 20.7961L17.0449 20.834ZM17.1914 20.2715L17.0923 20.2581L17.0921 20.2598L17.1914 20.2715ZM17.1914 19.1465L17.0921 19.1584L17.0924 19.1606L17.1914 19.1465ZM17.0449 18.6016L16.9523 18.6394L16.9535 18.642L17.0449 18.6016ZM16.7285 18.1855L16.666 18.2637L16.6685 18.2655L16.7285 18.1855ZM15.8379 18.0918L15.7579 18.0318L15.757 18.033L15.8379 18.0918ZM15.7031 21.9355V21.8355C15.6003 21.8355 15.5165 21.8009 15.4457 21.7301L15.375 21.8008L15.3043 21.8715C15.4132 21.9804 15.5481 22.0355 15.7031 22.0355V21.9355ZM15.375 21.8008L15.4472 21.7316C15.3751 21.6563 15.3402 21.5697 15.3402 21.4668H15.2402H15.1402C15.1402 21.6217 15.1953 21.7578 15.3028 21.87L15.375 21.8008ZM15.2402 21.4668H15.3402V17.9746H15.2402H15.1402V21.4668H15.2402ZM15.2402 17.9746H15.3402C15.3402 17.8765 15.3744 17.7916 15.4472 17.7157L15.375 17.6465L15.3028 17.5773C15.1959 17.6889 15.1402 17.8227 15.1402 17.9746H15.2402ZM15.375 17.6465L15.4472 17.7157C15.519 17.6407 15.6007 17.6059 15.6973 17.6059V17.5059V17.4059C15.5438 17.4059 15.4107 17.4647 15.3028 17.5773L15.375 17.6465ZM15.6973 17.5059V17.6059H16.1191V17.5059V17.4059H15.6973V17.5059ZM16.1191 17.5059V17.6059C16.4438 17.6059 16.7008 17.6645 16.8962 17.7746L16.9453 17.6875L16.9944 17.6004C16.7601 17.4683 16.4663 17.4059 16.1191 17.4059V17.5059ZM16.9453 17.6875L16.8969 17.775C17.1009 17.8879 17.2597 18.0398 17.3753 18.2314L17.4609 18.1797L17.5465 18.128C17.4122 17.9055 17.2273 17.7293 16.9937 17.6L16.9453 17.6875ZM17.4609 18.1797L17.3753 18.2314C17.4935 18.4271 17.5776 18.6521 17.6264 18.9074L17.7246 18.8887L17.8228 18.8699C17.7701 18.594 17.6783 18.3463 17.5465 18.128L17.4609 18.1797ZM17.7246 18.8887L17.6264 18.9077C17.6759 19.1627 17.7008 19.4316 17.7008 19.7148H17.8008H17.9008C17.9008 19.4199 17.8749 19.1381 17.8228 18.8696L17.7246 18.8887ZM17.8008 19.7148H17.7008C17.7008 19.9631 17.6798 20.2155 17.6376 20.4721L17.7363 20.4883L17.835 20.5045C17.8788 20.2376 17.9008 19.9744 17.9008 19.7148H17.8008ZM17.7363 20.4883L17.6376 20.4721C17.5963 20.7242 17.5212 20.9543 17.4132 21.163L17.502 21.209L17.5908 21.255C17.7092 21.0262 17.7905 20.7758 17.835 20.5045L17.7363 20.4883ZM17.502 21.209L17.4125 21.1643C17.3107 21.3678 17.168 21.5302 16.9836 21.6531L17.0391 21.7363L17.0945 21.8195C17.3086 21.6769 17.4744 21.4877 17.5914 21.2537L17.502 21.209ZM17.0391 21.7363L16.9836 21.6531C16.8051 21.7721 16.5702 21.8355 16.2715 21.8355V21.9355V22.0355C16.5978 22.0355 16.8746 21.9662 17.0945 21.8195L17.0391 21.7363ZM16.2715 21.9355V21.8355H15.7031V21.9355V22.0355H16.2715V21.9355ZM16.002 21.4199V21.5199H16.166V21.4199V21.3199H16.002V21.4199ZM16.166 21.4199V21.5199C16.4156 21.5199 16.6269 21.4616 16.7899 21.3348L16.7285 21.2559L16.6671 21.1769C16.5489 21.2689 16.3852 21.3199 16.166 21.3199V21.4199ZM16.7285 21.2559L16.7899 21.3348C16.9449 21.2142 17.0608 21.0592 17.1375 20.8718L17.0449 20.834L16.9524 20.7961C16.8884 20.9525 16.7934 21.0787 16.6671 21.1769L16.7285 21.2559ZM17.0449 20.834L17.137 20.8729C17.2151 20.688 17.2662 20.4913 17.2907 20.2832L17.1914 20.2715L17.0921 20.2598C17.0697 20.4501 17.0232 20.6284 16.9528 20.7951L17.0449 20.834ZM17.1914 20.2715L17.2905 20.2848C17.3184 20.0779 17.3324 19.882 17.3324 19.6973H17.2324H17.1324C17.1324 19.8719 17.1191 20.0588 17.0923 20.2581L17.1914 20.2715ZM17.2324 19.6973H17.3324C17.3324 19.5163 17.3183 19.328 17.2904 19.1323L17.1914 19.1465L17.0924 19.1606C17.1192 19.3478 17.1324 19.5267 17.1324 19.6973H17.2324ZM17.1914 19.1465L17.2907 19.1346C17.2662 18.9301 17.2149 18.7388 17.1364 18.5611L17.0449 18.6016L16.9535 18.642C17.0234 18.8003 17.0698 18.9722 17.0921 19.1584L17.1914 19.1465ZM17.0449 18.6016L17.1375 18.5637C17.0607 18.3761 16.9444 18.2225 16.7885 18.1055L16.7285 18.1855L16.6685 18.2655C16.7939 18.3595 16.8885 18.4833 16.9524 18.6394L17.0449 18.6016ZM16.7285 18.1855L16.791 18.1075C16.6322 17.9804 16.4285 17.9215 16.1895 17.9215V18.0215V18.1215C16.3957 18.1215 16.5514 18.1719 16.666 18.2636L16.7285 18.1855ZM16.1895 18.0215V17.9215H15.9961V18.0215V18.1215H16.1895V18.0215ZM15.9961 18.0215V17.9215C15.9014 17.9215 15.8158 17.9546 15.7579 18.0318L15.8379 18.0918L15.9179 18.1518C15.9303 18.1353 15.9502 18.1215 15.9961 18.1215V18.0215ZM15.8379 18.0918L15.757 18.033C15.7105 18.0969 15.691 18.1737 15.691 18.2559H15.791H15.891C15.891 18.2052 15.9028 18.1726 15.9188 18.1506L15.8379 18.0918ZM15.791 18.2559H15.691V21.1855H15.791H15.891V18.2559H15.791ZM15.791 21.1855H15.691C15.691 21.2681 15.7147 21.3442 15.7637 21.4096L15.8438 21.3496L15.9238 21.2896C15.9025 21.2612 15.891 21.2279 15.891 21.1855H15.791ZM15.8438 21.3496L15.7637 21.4096C15.8217 21.4868 15.9072 21.5199 16.002 21.5199V21.4199V21.3199C15.956 21.3199 15.9361 21.3061 15.9238 21.2896L15.8438 21.3496ZM17.9988 21.9238L17.9124 21.9747L17.9164 21.9805L17.9988 21.9238ZM19.5223 17.5352L19.511 17.6345L19.5134 17.6348L19.5223 17.5352ZM19.9617 17.6582L20.0111 17.5713L20.011 17.5712L19.9617 17.6582ZM20.3895 18.1035L20.2989 18.1459L20.2996 18.1475L20.3895 18.1035ZM19.2234 20.0137V20.1137L19.2244 20.1137L19.2234 20.0137ZM18.491 20.0137V19.9137H18.391V20.0137H18.491ZM18.4266 21.9238L18.3426 21.8695L18.3418 21.8708L18.4266 21.9238ZM18.491 19.5156H18.391V19.6156H18.491V19.5156ZM19.7156 19.3574L19.7706 19.441L19.772 19.44L19.7156 19.3574ZM19.7273 18.1504L19.6724 18.2339L19.6734 18.2346L19.7273 18.1504ZM18.2156 22.0176V21.9176C18.1347 21.9176 18.0995 21.8938 18.0812 21.8672L17.9988 21.9238L17.9164 21.9805C17.9841 22.0789 18.0934 22.1176 18.2156 22.1176V22.0176ZM17.9988 21.9238L18.085 21.8731C18.0568 21.8251 18.0402 21.7634 18.0402 21.6836H17.9402H17.8402C17.8402 21.7913 17.8628 21.8897 17.9126 21.9745L17.9988 21.9238ZM17.9402 21.6836H18.0402V17.9688H17.9402H17.8402V21.6836H17.9402ZM17.9402 17.9688H18.0402C18.0402 17.8659 18.0749 17.7821 18.1457 17.7113L18.075 17.6406L18.0043 17.5699C17.8954 17.6788 17.8402 17.8138 17.8402 17.9688H17.9402ZM18.075 17.6406L18.1457 17.7113C18.2165 17.6405 18.3003 17.6059 18.4031 17.6059V17.5059V17.4059C18.2481 17.4059 18.1132 17.461 18.0043 17.5699L18.075 17.6406ZM18.4031 17.5059V17.6059H19.0652V17.5059V17.4059H18.4031V17.5059ZM19.0652 17.5059V17.6059C19.1933 17.6059 19.3418 17.6153 19.511 17.6345L19.5223 17.5352L19.5336 17.4358C19.359 17.416 19.2027 17.4059 19.0652 17.4059V17.5059ZM19.5223 17.5352L19.5134 17.6348C19.6792 17.6495 19.8109 17.6877 19.9124 17.7452L19.9617 17.6582L20.011 17.5712C19.8782 17.4959 19.7169 17.4521 19.5311 17.4355L19.5223 17.5352ZM19.9617 17.6582L19.9123 17.7451C20.096 17.8496 20.2228 17.9835 20.2989 18.1459L20.3895 18.1035L20.48 18.0611C20.3842 17.8564 20.2259 17.6934 20.0111 17.5713L19.9617 17.6582ZM20.3895 18.1035L20.2996 18.1475C20.3821 18.316 20.4242 18.5058 20.4242 18.7188H20.5242H20.6242C20.6242 18.4786 20.5765 18.2583 20.4793 18.0596L20.3895 18.1035ZM20.5242 18.7188H20.4242C20.4242 19.1235 20.3177 19.4143 20.1202 19.6084L20.1902 19.6797L20.2603 19.751C20.5081 19.5076 20.6242 19.1577 20.6242 18.7188H20.5242ZM20.1902 19.6797L20.1202 19.6084C19.9217 19.8033 19.6278 19.9099 19.2225 19.9137L19.2234 20.0137L19.2244 20.1137C19.6628 20.1096 20.0135 19.9935 20.2603 19.751L20.1902 19.6797ZM19.2234 20.0137V19.9137H18.491V20.0137V20.1137H19.2234V20.0137ZM18.491 20.0137H18.391V21.6836H18.491H18.591V20.0137H18.491ZM18.491 21.6836H18.391C18.391 21.7617 18.3733 21.8221 18.3426 21.8695L18.4266 21.9238L18.5105 21.9782C18.5658 21.8928 18.591 21.793 18.591 21.6836H18.491ZM18.4266 21.9238L18.3418 21.8708C18.3275 21.8936 18.2971 21.9176 18.2156 21.9176V22.0176V22.1176C18.3372 22.1176 18.4475 22.079 18.5114 21.9768L18.4266 21.9238ZM18.491 19.5156V19.6156H19.0359V19.5156V19.4156H18.491V19.5156ZM19.0359 19.5156V19.6156C19.3389 19.6156 19.5876 19.5614 19.7706 19.4409L19.7156 19.3574L19.6606 19.2739C19.5233 19.3643 19.319 19.4156 19.0359 19.4156V19.5156ZM19.7156 19.3574L19.772 19.44C19.9735 19.3024 20.0559 19.0445 20.0559 18.7129H19.9559H19.8559C19.8559 19.0219 19.778 19.1937 19.6592 19.2748L19.7156 19.3574ZM19.9559 18.7129H20.0559C20.0559 18.4207 19.9754 18.1906 19.7813 18.0662L19.7273 18.1504L19.6734 18.2346C19.784 18.3055 19.8559 18.4504 19.8559 18.7129H19.9559ZM19.7273 18.1504L19.7823 18.0668C19.6117 17.9546 19.387 17.9039 19.118 17.9039V18.0039V18.1039C19.3646 18.1039 19.5461 18.1508 19.6724 18.2339L19.7273 18.1504ZM19.118 18.0039V17.9039H18.7254V18.0039V18.1039H19.118V18.0039ZM18.7254 18.0039V17.9039C18.6319 17.9039 18.5433 17.9274 18.4789 17.9918C18.4145 18.0562 18.391 18.1447 18.391 18.2383H18.491H18.591C18.591 18.1756 18.6066 18.1469 18.6203 18.1332C18.634 18.1195 18.6627 18.1039 18.7254 18.1039V18.0039ZM18.491 18.2383H18.391V19.5156H18.491H18.591V18.2383H18.491ZM20.775 21.8008L20.7028 21.87L20.7043 21.8715L20.775 21.8008ZM22.3453 17.6875L22.2962 17.7746L22.2969 17.775L22.3453 17.6875ZM23.1246 18.8887L23.0264 18.9074L23.0264 18.9077L23.1246 18.8887ZM22.902 21.209L22.8131 21.163L22.8125 21.1643L22.902 21.209ZM22.4449 20.834L22.3528 20.7951L22.3524 20.7961L22.4449 20.834ZM22.5914 20.2715L22.4923 20.2581L22.4921 20.2598L22.5914 20.2715ZM22.5914 19.1465L22.4921 19.1584L22.4924 19.1606L22.5914 19.1465ZM22.4449 18.6016L22.3523 18.6394L22.3535 18.642L22.4449 18.6016ZM22.1285 18.1855L22.066 18.2637L22.0685 18.2655L22.1285 18.1855ZM21.2379 18.0918L21.1579 18.0318L21.157 18.033L21.2379 18.0918ZM21.1031 21.9355V21.8355C21.0003 21.8355 20.9165 21.8009 20.8457 21.7301L20.775 21.8008L20.7043 21.8715C20.8132 21.9804 20.9481 22.0355 21.1031 22.0355V21.9355ZM20.775 21.8008L20.8472 21.7316C20.7751 21.6563 20.7402 21.5697 20.7402 21.4668H20.6402H20.5402C20.5402 21.6217 20.5953 21.7578 20.7028 21.87L20.775 21.8008ZM20.6402 21.4668H20.7402V17.9746H20.6402H20.5402V21.4668H20.6402ZM20.6402 17.9746H20.7402C20.7402 17.8765 20.7744 17.7916 20.8472 17.7157L20.775 17.6465L20.7028 17.5773C20.5959 17.6889 20.5402 17.8227 20.5402 17.9746H20.6402ZM20.775 17.6465L20.8472 17.7157C20.919 17.6407 21.0007 17.6059 21.0973 17.6059V17.5059V17.4059C20.9438 17.4059 20.8107 17.4647 20.7028 17.5773L20.775 17.6465ZM21.0973 17.5059V17.6059H21.5191V17.5059V17.4059H21.0973V17.5059ZM21.5191 17.5059V17.6059C21.8438 17.6059 22.1008 17.6645 22.2962 17.7746L22.3453 17.6875L22.3944 17.6004C22.1601 17.4683 21.8663 17.4059 21.5191 17.4059V17.5059ZM22.3453 17.6875L22.2969 17.775C22.5009 17.8879 22.6597 18.0398 22.7753 18.2314L22.8609 18.1797L22.9465 18.128C22.8122 17.9055 22.6273 17.7293 22.3937 17.6L22.3453 17.6875ZM22.8609 18.1797L22.7753 18.2314C22.8935 18.4271 22.9776 18.6521 23.0264 18.9074L23.1246 18.8887L23.2228 18.8699C23.1701 18.594 23.0783 18.3463 22.9465 18.128L22.8609 18.1797ZM23.1246 18.8887L23.0264 18.9077C23.0759 19.1627 23.1008 19.4316 23.1008 19.7148H23.2008H23.3008C23.3008 19.4199 23.2749 19.1381 23.2228 18.8696L23.1246 18.8887ZM23.2008 19.7148H23.1008C23.1008 19.9631 23.0798 20.2155 23.0376 20.4721L23.1363 20.4883L23.235 20.5045C23.2788 20.2376 23.3008 19.9744 23.3008 19.7148H23.2008ZM23.1363 20.4883L23.0376 20.4721C22.9963 20.7242 22.9212 20.9543 22.8132 21.163L22.902 21.209L22.9908 21.255C23.1092 21.0262 23.1905 20.7758 23.235 20.5045L23.1363 20.4883ZM22.902 21.209L22.8125 21.1643C22.7107 21.3678 22.568 21.5302 22.3836 21.6531L22.4391 21.7363L22.4945 21.8195C22.7086 21.6769 22.8744 21.4877 22.9914 21.2537L22.902 21.209ZM22.4391 21.7363L22.3836 21.6531C22.2051 21.7721 21.9702 21.8355 21.6715 21.8355V21.9355V22.0355C21.9978 22.0355 22.2746 21.9662 22.4945 21.8195L22.4391 21.7363ZM21.6715 21.9355V21.8355H21.1031V21.9355V22.0355H21.6715V21.9355ZM21.402 21.4199V21.5199H21.566V21.4199V21.3199H21.402V21.4199ZM21.566 21.4199V21.5199C21.8156 21.5199 22.0269 21.4616 22.1899 21.3348L22.1285 21.2559L22.0671 21.1769C21.9489 21.2689 21.7852 21.3199 21.566 21.3199V21.4199ZM22.1285 21.2559L22.1899 21.3348C22.3449 21.2142 22.4608 21.0592 22.5375 20.8718L22.4449 20.834L22.3524 20.7961C22.2884 20.9525 22.1934 21.0787 22.0671 21.1769L22.1285 21.2559ZM22.4449 20.834L22.537 20.8729C22.6151 20.688 22.6662 20.4913 22.6907 20.2832L22.5914 20.2715L22.4921 20.2598C22.4697 20.4501 22.4232 20.6284 22.3528 20.7951L22.4449 20.834ZM22.5914 20.2715L22.6905 20.2848C22.7184 20.0779 22.7324 19.882 22.7324 19.6973H22.6324H22.5324C22.5324 19.8719 22.5191 20.0588 22.4923 20.2581L22.5914 20.2715ZM22.6324 19.6973H22.7324C22.7324 19.5163 22.7183 19.328 22.6904 19.1323L22.5914 19.1465L22.4924 19.1606C22.5192 19.3478 22.5324 19.5267 22.5324 19.6973H22.6324ZM22.5914 19.1465L22.6907 19.1346C22.6662 18.9301 22.6149 18.7388 22.5364 18.5611L22.4449 18.6016L22.3535 18.642C22.4234 18.8003 22.4698 18.9722 22.4921 19.1584L22.5914 19.1465ZM22.4449 18.6016L22.5375 18.5637C22.4607 18.3761 22.3444 18.2225 22.1885 18.1055L22.1285 18.1855L22.0685 18.2655C22.1939 18.3595 22.2885 18.4833 22.3524 18.6394L22.4449 18.6016ZM22.1285 18.1855L22.191 18.1075C22.0322 17.9804 21.8285 17.9215 21.5895 17.9215V18.0215V18.1215C21.7957 18.1215 21.9514 18.1719 22.066 18.2636L22.1285 18.1855ZM21.5895 18.0215V17.9215H21.3961V18.0215V18.1215H21.5895V18.0215ZM21.3961 18.0215V17.9215C21.3014 17.9215 21.2158 17.9546 21.1579 18.0318L21.2379 18.0918L21.3179 18.1518C21.3303 18.1353 21.3502 18.1215 21.3961 18.1215V18.0215ZM21.2379 18.0918L21.157 18.033C21.1105 18.0969 21.091 18.1737 21.091 18.2559H21.191H21.291C21.291 18.2052 21.3028 18.1726 21.3188 18.1506L21.2379 18.0918ZM21.191 18.2559H21.091V21.1855H21.191H21.291V18.2559H21.191ZM21.191 21.1855H21.091C21.091 21.2681 21.1147 21.3442 21.1638 21.4096L21.2438 21.3496L21.3238 21.2896C21.3025 21.2612 21.291 21.2279 21.291 21.1855H21.191ZM21.2438 21.3496L21.1638 21.4096C21.2217 21.4868 21.3072 21.5199 21.402 21.5199V21.4199V21.3199C21.356 21.3199 21.3361 21.3061 21.3238 21.2896L21.2438 21.3496Z" fill="#1C274C"/>
</svg>
